<svg xmlns="http://www.w3.org/2000/svg" width="152.9" height="163" viewBox="0 0 152.9 163"><linearGradient id="a" gradientUnits="userSpaceOnUse" x1="89.5927" y1="5.0504" x2="125.5174" y2="177.1891"><stop offset="0" stop-color="#ec1c24"/><stop offset=".1575" stop-color="#e91c23"/><stop offset=".2911" stop-color="#de1a22"/><stop offset=".4159" stop-color="#cd181f"/><stop offset=".5355" stop-color="#b4151b"/><stop offset=".6514" stop-color="#941217"/><stop offset=".7644" stop-color="#6d0d11"/><stop offset=".8751" stop-color="#3e070a"/><stop offset=".9814" stop-color="#0a0102"/><stop offset="1"/></linearGradient><path d="M49.1 61.5C61.8 41.1 74.5 20.7 87.3.3c25.2 8.5 64.3 30 65.3 58.2-10.8-14.4-22.9-26.2-37.1-33.2l6.4-5.1-39.3-2.4 27.7 35.5-.4-20.1c74.8 41.1 42.2 128.3-34.5 129.6 28.5-9.8 47-28.3 47-51.6-.1-24.4-34.2-52.9-73.3-49.7z" fill-rule="evenodd" clip-rule="evenodd" fill="url(#a)" stroke="#ec1c24" stroke-width=".5"/><linearGradient id="b" gradientUnits="userSpaceOnUse" x1=".125" y1="82.3316" x2="101.6065" y2="82.3316"><stop offset="0" stop-color="#1b75bb"/><stop offset="1" stop-color="#32327b"/></linearGradient><path d="M101.6 105L76 143.1C-26.5 127.6-23.7 6.6 75.4 3.7.4 25.1 24.5 115.3 101.6 105zm-30.8 46C27.7 139 13 123.8 2.3 108.2c4.1 29.4 34.8 45.5 61.8 52.7l6.7-9.9z" fill-rule="evenodd" clip-rule="evenodd" fill="url(#b)" stroke="#426db4" stroke-width=".25"/></svg>