<svg id="Слой_1" xmlns="http://www.w3.org/2000/svg" width="535.2" height="163" viewBox="0 0 535.2 163"><style>.st0{fill:#df1e26}.st1{fill:#274a9e}</style><path class="st0" d="M220.7 48.8c0-3-.9-5.7-2.7-8.1-1.8-2.4-4.5-3.7-8.1-3.7-5 0-8.4 2.4-10.2 7.2L189 41.1c3.8-9.3 10.8-13.9 21-13.9 7.2 0 12.8 2.4 16.9 7.2 4 4.8 6 11.2 6 19.3 0 4.6-.8 8.9-2.4 12.9-1.6 4-4.2 7.3-7.7 9.8-3.5 2.5-7.9 3.7-13 3.7-6.1 0-11-1.6-14.7-4.8-3.7-3.2-6.1-6.9-7.4-11.2l10.9-2.1c1.7 5.5 5.3 8.3 10.8 8.3 3.4 0 6.1-1.2 8.2-3.6 2.1-2.4 3.2-5.6 3.2-9.5h-18v-8.4h17.9zM256.5 28v24.1L272.6 28h11.5l-12.3 18.3 15.4 33H274L263.7 57l-7.2 10.5v11.8h-11.8V28h11.8zM336.2 47.1l-12.6.8c-.2-7.2-3-10.9-8.5-10.9-6.3 0-9.4 5.6-9.4 16.7 0 6.4.9 10.8 2.6 13.1 1.7 2.3 4.1 3.4 7.2 3.4 5 0 8-3.2 9.1-9.7l11.7.7c-.8 6.1-3 10.8-6.9 14-3.8 3.2-8.5 4.8-14 4.8-6.8 0-12.3-2.3-16.6-7-4.2-4.7-6.4-11.2-6.4-19.4 0-7.7 2.1-14.1 6.2-19s9.7-7.4 16.8-7.4c12.3 0 19.3 6.6 20.8 19.9zM347 79.3V28h38.1v51.3h-11.8v-42h-14.5v42H347zM418.5 80.1c-6.9 0-12.3-2.6-16-7.8-3.8-5.2-5.7-11.5-5.7-18.8 0-7.5 1.9-13.7 5.7-18.8 3.8-5 9.3-7.5 16.4-7.5 7.2 0 12.6 2.7 16.2 8 3.6 5.4 5.5 11.5 5.5 18.4 0 7.4-1.9 13.7-5.6 18.8-3.8 5.2-9.2 7.7-16.5 7.7zm.4-43.1c-6.3 0-9.5 5.5-9.5 16.6 0 11.1 3.2 16.7 9.5 16.7 6.1 0 9.2-5.5 9.2-16.6C428 42.6 425 37 418.9 37zM464.6 60.3v19.1h-12.2V28h20.2c4.5 0 8 .5 10.4 1.4 2.4 1 4.5 2.7 6.4 5.2 1.9 2.5 2.8 5.5 2.8 9.1 0 2.5-.5 5-1.5 7.4-1 2.4-2.4 4.3-4.2 5.7-1.8 1.4-3.6 2.3-5.3 2.7s-4.4.7-8.1.7h-8.5zm-.5-9.4h7.8c3 0 5.1-.7 6.3-2.1 1.2-1.4 1.8-3 1.8-4.7 0-2.1-.7-3.7-2-5-1.3-1.2-3.4-1.8-6.1-1.8h-7.8v13.6zM535.2 28v10.2h-12.7v41.2h-12.2V38.2h-12.8V28h37.7z"/><path class="st1" d="M202.2 97.7v22l14.7-22h10.5l-11.2 16.7 14 30.1h-12.1l-9.3-20.3-6.6 9.6v10.7h-10.8V97.7h10.8zM253.7 145.2c-6.3 0-11.2-2.4-14.6-7.1-3.4-4.7-5.2-10.5-5.2-17.2 0-6.8 1.7-12.5 5.2-17.1 3.5-4.6 8.5-6.9 14.9-6.9 6.5 0 11.5 2.4 14.8 7.3 3.3 4.9 5 10.5 5 16.7 0 6.8-1.7 12.5-5.1 17.2-3.5 4.8-8.5 7.1-15 7.1zm.3-39.3c-5.7 0-8.6 5.1-8.6 15.2s2.9 15.2 8.6 15.2c5.6 0 8.3-5 8.3-15.2 0-10.1-2.8-15.2-8.3-15.2zM319.6 97.7v46.8h-10.8v-19.3h-14.6v19.3h-10.8V97.7h10.8v18.2h14.6V97.7h10.8zM361.1 97.7v9.3h-11.6v37.5h-11.1V107h-11.7v-9.3h34.4zM379.3 127.1v17.4h-11.1V97.7h18.4c4.1 0 7.3.4 9.4 1.3 2.2.9 4.1 2.5 5.8 4.7 1.7 2.3 2.6 5 2.6 8.3 0 2.3-.5 4.6-1.4 6.8-.9 2.2-2.2 3.9-3.9 5.2-1.7 1.3-3.3 2.1-4.8 2.5-1.6.4-4 .6-7.4.6h-7.6zm-.3-8.5h7.1c2.7 0 4.6-.6 5.7-1.9 1.1-1.3 1.6-2.7 1.6-4.3 0-1.9-.6-3.4-1.8-4.5-1.2-1.1-3.1-1.7-5.6-1.7h-7v12.4zM433.2 97.7l14.6 46.8H436l-2.9-9.6H418l-2.9 9.6h-9.6l15-46.8h12.7zm-12.5 28.5h9.9l-4.9-16.4-5 16.4zM466.1 97.7v22l14.7-22h10.5L480 114.4l14 30.1h-12l-9.3-20.3-6.6 9.6v10.7h-10.8V97.7h10.8zM531.7 97.7v9.3h-11.6v37.5H509V107h-11.7v-9.3h34.4z"/><linearGradient id="SVGID_1_" gradientUnits="userSpaceOnUse" x1="89.5927" y1="5.0504" x2="125.5174" y2="177.1891"><stop offset="0" stop-color="#ec1c24"/><stop offset=".1575" stop-color="#e91c23"/><stop offset=".2911" stop-color="#de1a22"/><stop offset=".4159" stop-color="#cd181f"/><stop offset=".5355" stop-color="#b4151b"/><stop offset=".6514" stop-color="#941217"/><stop offset=".7644" stop-color="#6d0d11"/><stop offset=".8751" stop-color="#3e070a"/><stop offset=".9814" stop-color="#0a0102"/><stop offset="1"/></linearGradient><path d="M49.1 61.5C61.8 41.1 74.5 20.7 87.3.3c25.2 8.5 64.3 30 65.3 58.2-10.8-14.4-22.9-26.2-37.1-33.2l6.4-5.1-39.3-2.4 27.7 35.5-.4-20.1c74.8 41.1 42.2 128.3-34.5 129.6 28.5-9.8 47-28.3 47-51.6-.1-24.4-34.2-52.9-73.3-49.7z" fill-rule="evenodd" clip-rule="evenodd" fill="url(#SVGID_1_)" stroke="#ec1c24" stroke-width=".5"/><linearGradient id="SVGID_2_" gradientUnits="userSpaceOnUse" x1=".125" y1="82.3316" x2="101.6065" y2="82.3316"><stop offset="0" stop-color="#1b75bb"/><stop offset="1" stop-color="#32327b"/></linearGradient><path d="M101.6 105L76 143.1C-26.5 127.6-23.7 6.6 75.4 3.7.4 25.1 24.5 115.3 101.6 105zm-30.8 46C27.7 139 13 123.8 2.3 108.2c4.1 29.4 34.8 45.5 61.8 52.7l6.7-9.9z" fill-rule="evenodd" clip-rule="evenodd" fill="url(#SVGID_2_)" stroke="#426db4" stroke-width=".25"/></svg>