<svg width="26" height="35" viewBox="0 0 26 35" fill="none" xmlns="http://www.w3.org/2000/svg"><path d="M25.3101 7.0534h-3.5669V4.1635c0-.3829-.3089-.6934-.6899-.6934h-2.1209v-.6C18.9324 1.285 17.6539 0 16.0767 0c-1.5769 0-2.8554 1.285-2.8554 2.8702v.6H.6899c-.381 0-.6899.3104-.6899.6933v26.5582c0 .3829.309.6934.69.6934h3.5664v2.8915c0 .3829.309.6934.69.6934H25.31c.381 0 .6899-.3105.6899-.6934V7.7485a.6956.6956 0 0 0-.2015-.4913.6883.6883 0 0 0-.4884-.2038zM20.3634 4.857v2.1977h-1.431V4.857h1.431zm-5.7609-1.9858c0-.8194.6606-1.4833 1.4759-1.4833.8149 0 1.4755.664 1.4755 1.4833v.599h-.787v-.509c0-.3829-.3085-.6934-.6899-.6934-.381 0-.6899.3105-.6899.6935V3.47h-.7856l.001-.599zM1.3798 30.0282V4.857h16.1727v2.1977H4.9463c-.381 0-.6899.3105-.6899.6934v22.2801H1.3798zm23.24 3.585H5.6362V8.4419h11.9163v1.4217c0 .3829.3089.6934.6899.6934.3811 0 .69-.3105.69-.6934V8.4419h5.6878l-.0004 25.1713z" fill="#3083AE"/><path d="M8.1453 13.5518h4.3891c.381 0 .69-.3105.69-.6934 0-.383-.309-.6935-.69-.6935H8.1453c-.3813 0-.69.3105-.69.6935 0 .3829.3087.6934.69.6934zM7.4554 18.5246c0 .3829.3086.6934.6899.6934h13.9658c.381 0 .6899-.3105.6899-.6934 0-.383-.3089-.6935-.6899-.6935H8.1453c-.3814 0-.69.3105-.69.6935zM22.1111 21.4577H8.1453c-.3814 0-.69.3105-.69.6934 0 .383.3087.6934.69.6934h13.9658c.381 0 .6899-.3104.6899-.6934 0-.3829-.3089-.6934-.6899-.6934zM22.1111 25.0843H8.1453c-.3814 0-.69.3104-.69.6934 0 .3829.3087.6934.69.6934h13.9658c.381 0 .6899-.3105.6899-.6934 0-.383-.3089-.6934-.6899-.6934zM22.1111 28.7105H8.1453c-.3814 0-.69.3105-.69.6934s.3087.6934.69.6934h13.9658c.381 0 .6899-.3105.6899-.6934s-.3089-.6934-.6899-.6934z" fill="#3083AE"/></svg>