<svg width="16" height="16" viewBox="0 0 16 16" fill="none" xmlns="http://www.w3.org/2000/svg">
<path d="M7.98635 3.79309C5.77053 3.79309 3.97549 5.589 3.97549 7.80395C3.97549 10.0198 5.77053 11.8157 7.98635 11.8157C10.2004 11.8157 11.9972 10.0198 11.9972 7.80395C11.9972 5.589 10.2004 3.79309 7.98635 3.79309ZM7.98635 10.4102C6.54702 10.4102 5.38012 9.24328 5.38012 7.80482C5.38012 6.36549 6.54702 5.19945 7.98635 5.19945C9.42568 5.19945 10.5908 6.36549 10.5908 7.80482C10.5908 9.24328 9.42568 10.4102 7.98635 10.4102Z" fill="#6F7477"/>
<path d="M12.1568 4.58086C12.6734 4.58086 13.0921 4.16213 13.0921 3.6456C13.0921 3.12907 12.6734 2.71034 12.1568 2.71034C11.6403 2.71034 11.2216 3.12907 11.2216 3.6456C11.2216 4.16213 11.6403 4.58086 12.1568 4.58086Z" fill="#6F7477"/>
<path d="M15.3903 2.69473C14.9834 1.64581 14.1549 0.8164 13.106 0.411236C12.4995 0.183061 11.8584 0.060731 11.2094 0.0468496C10.374 0.010411 10.1093 0 7.99069 0C5.87204 0 5.60048 -8.72644e-08 4.77194 0.0468496C4.12472 0.0598634 3.48357 0.182193 2.87713 0.411236C1.82735 0.8164 0.998799 1.64581 0.592768 2.69473C0.364593 3.30204 0.242263 3.94232 0.229249 4.59127C0.191943 5.42589 0.180664 5.69051 0.180664 7.81002C0.180664 9.92867 0.180664 10.1985 0.229249 11.0288C0.242263 11.6777 0.364593 12.318 0.592768 12.9262C0.999667 13.9742 1.82821 14.8036 2.87799 15.2097C3.48183 15.4457 4.12298 15.5793 4.77367 15.6001C5.60916 15.6365 5.87377 15.6478 7.99242 15.6478C10.1111 15.6478 10.3826 15.6478 11.2112 15.6001C11.8593 15.5871 12.5004 15.4639 13.1077 15.2366C14.1566 14.8297 14.9852 14.0011 15.3921 12.9522C15.6203 12.3449 15.7426 11.7046 15.7556 11.0557C15.7929 10.221 15.8042 9.95643 15.8042 7.83692C15.8042 5.7174 15.8042 5.44845 15.7556 4.61817C15.7443 3.96054 15.6229 3.30898 15.3903 2.69473ZM14.3336 10.9646C14.3275 11.4643 14.2373 11.9597 14.0638 12.4291C13.7992 13.1118 13.2604 13.6515 12.5785 13.9135C12.1143 14.0861 11.625 14.1764 11.1296 14.1833C10.3054 14.2215 10.0729 14.231 7.95945 14.231C5.84428 14.231 5.62825 14.231 4.78842 14.1833C4.29476 14.1772 3.80371 14.0861 3.34042 13.9135C2.65589 13.6524 2.11365 13.1127 1.84904 12.4291C1.67899 11.9658 1.58702 11.4756 1.57922 10.9811C1.54191 10.1568 1.53323 9.92433 1.53323 7.81089C1.53323 5.69658 1.53323 5.48055 1.57922 4.63986C1.58529 4.14013 1.67552 3.6456 1.84904 3.17624C2.11365 2.49171 2.65589 1.95294 3.34042 1.69093C3.80371 1.51915 4.29476 1.42805 4.78842 1.42111C5.6135 1.3838 5.84514 1.37339 7.95945 1.37339C10.0738 1.37339 10.2907 1.37339 11.1296 1.42111C11.625 1.42718 12.1143 1.51828 12.5785 1.69093C13.2604 1.95381 13.7992 2.49345 14.0638 3.17624C14.2338 3.63953 14.3258 4.12972 14.3336 4.62424C14.3709 5.44932 14.3805 5.68096 14.3805 7.79527C14.3805 9.90872 14.3805 10.136 14.3432 10.9654H14.3336V10.9646Z" fill="#6F7477"/>
</svg>
