<svg width="16" height="16" viewBox="0 0 16 16" fill="none" xmlns="http://www.w3.org/2000/svg">
<path d="M1.96371 3.79656C3.0121 3.79656 3.86199 2.94667 3.86199 1.89828C3.86199 0.849889 3.0121 0 1.96371 0C0.915319 0 0.0654297 0.849889 0.0654297 1.89828C0.0654297 2.94667 0.915319 3.79656 1.96371 3.79656Z" fill="#6F7477"/>
<path d="M5.65443 5.23502V15.7667H8.92437V10.5585C8.92437 9.18428 9.18291 7.8534 10.8868 7.8534C12.5674 7.8534 12.5882 9.4246 12.5882 10.6453V15.7675H15.8599V9.99201C15.8599 7.15499 15.2491 4.97475 11.9332 4.97475C10.3411 4.97475 9.274 5.84841 8.83761 6.67522H8.79336V5.23502H5.65443ZM0.325706 5.23502H3.60085V15.7667H0.325706V5.23502Z" fill="#6F7477"/>
</svg>
