<svg width="14" height="18" viewBox="0 0 14 18" fill="none" xmlns="http://www.w3.org/2000/svg"><path d="M7 10.8c1.9302 0 3.5-1.6146 3.5-3.6S8.9302 3.6 7 3.6 3.5 5.2146 3.5 7.2s1.5698 3.6 3.5 3.6zm0-5.4c.9651 0 1.75.8073 1.75 1.8S7.965 9 7 9s-1.75-.8073-1.75-1.8S6.035 5.4 7 5.4z" fill="#3083AE"/><path d="M6.4925 17.8326A.8567.8567 0 0 0 7 18a.8567.8567 0 0 0 .5075-.1674c.266-.1935 6.5178-4.8366 6.4924-10.6326C13.9999 3.2301 10.8596 0 7 0 3.1404 0 0 3.2301 0 7.1955c-.0253 5.8005 6.2265 10.4436 6.4925 10.6371zM7 1.8c2.8953 0 5.2499 2.4219 5.2499 5.4045.0184 3.9942-3.8394 7.5807-5.2499 8.757C5.5904 14.7843 1.7317 11.1969 1.75 7.2c0-2.9781 2.3547-5.4 5.25-5.4z" fill="#3083AE"/></svg>