<svg width="16" height="16" viewBox="0 0 16 16" fill="none" xmlns="http://www.w3.org/2000/svg"><path d="M11.6534 16h.0224c.4224 0 .8217-.1664 1.1241-.4688l2.1697-2.1697a.7992.7992 0 0 0 0-1.1313L11.7694 9.03a.799.799 0 0 0-1.1312 0l-1.2753 1.2753c-.5912-.176-1.6944-.576-2.3937-1.2753C6.27 8.3308 5.87 7.2276 5.694 6.6363l1.2752-1.2752a.7992.7992 0 0 0 0-1.1313l-3.2-3.2001c-.3-.3-.8313-.3-1.1313 0L.4689 3.1993c-.304.304-.4751.7216-.4687 1.148.0184 1.1393.32 5.0963 3.4385 8.2148 3.1185 3.1186 7.0755 3.4194 8.2147 3.4378zM3.2043 2.7265l2.0689 2.069-1.0345 1.0344a.7971.7971 0 0 0-.2168.7296c.0192.092.4889 2.2737 1.8169 3.6018 1.328 1.3281 3.5097 1.7977 3.6017 1.8169a.7953.7953 0 0 0 .7297-.2168l1.0344-1.0345 2.0689 2.0689-1.6049 1.6041c-.9984-.0168-4.4145-.2848-7.0986-2.9697-2.693-2.693-2.9538-6.1211-2.9698-7.0996l1.6041-1.604zm11.1956 4.473H16C16 3.0955 12.9015 0 8.7917 0v1.6C12.0414 1.6 14.4 3.9547 14.4 7.1997z" fill="#3083AE"/><path d="M8.8889 4.9778c1.4955 0 2.1333.6378 2.1333 2.1333h1.4222c0-2.2933-1.2622-3.5555-3.5555-3.5555v1.4222z" fill="#3083AE"/></svg>