<svg width="12" height="12" viewBox="0 0 12 12" fill="none" xmlns="http://www.w3.org/2000/svg"><path d="M10.4965 11L11 10.4966l-2.4492-2.449.111-.1428c.5648-.7261.9044-1.6343.9044-2.622C9.5662 2.9217 7.6445 1 5.2832 1 2.9216 1 1 2.9216 1 5.2829s1.9217 4.283 4.2831 4.283c.9877 0 1.896-.3397 2.6215-.9039l.1427-.111L10.4965 11zM5.2831 1.7121c1.9695 0 3.571 1.6013 3.571 3.5708 0 1.9694-1.6015 3.5707-3.571 3.5707-1.9695 0-3.571-1.6013-3.571-3.5707 0-1.9695 1.6015-3.5708 3.571-3.5708z" fill="#3083AE" stroke="#3083AE"/></svg>