<svg width="18" height="15" viewBox="0 0 18 15" fill="none" xmlns="http://www.w3.org/2000/svg">
<path d="M16.2484 3.63486C16.2596 3.78668 16.2596 3.93765 16.2596 4.08861C16.2596 8.70851 12.7433 14.032 6.31709 14.032C4.33726 14.032 2.49797 13.4586 0.950195 12.4626C1.23129 12.4947 1.50198 12.5059 1.79436 12.5059C3.42803 12.5059 4.93155 11.9542 6.13316 11.0128C4.59667 10.9807 3.30917 9.97432 2.86496 8.58965C3.08099 8.62175 3.29789 8.64344 3.5252 8.64344C3.83839 8.64344 4.15333 8.60006 4.44571 8.52458C2.84327 8.2001 1.6434 6.79374 1.6434 5.09501V5.05163C2.10929 5.31104 2.6498 5.47327 3.22241 5.49496C2.28107 4.86857 1.66422 3.7971 1.66422 2.58508C1.66422 1.93612 1.83687 1.34096 2.13966 0.822138C3.86008 2.94165 6.44636 4.32719 9.34584 4.47902C9.29205 4.21874 9.25908 3.94892 9.25908 3.67824C9.25908 1.75219 10.8173 0.183594 12.7537 0.183594C13.7601 0.183594 14.6685 0.605241 15.307 1.28716C16.0965 1.13534 16.8531 0.84296 17.5246 0.443002C17.2652 1.2542 16.7125 1.93612 15.9881 2.36905C16.6917 2.2927 17.3736 2.09836 18 1.82767C17.5246 2.52001 16.9303 3.13686 16.2484 3.63486Z" fill="#6F7477"/>
</svg>
